<?xml version="1.0" encoding="utf-8"?>
<!-- Generator: Adobe Illustrator 16.2.0, SVG Export Plug-In . SVG Version: 6.00 Build 0)  -->
<!DOCTYPE svg PUBLIC "-//W3C//DTD SVG 1.1//EN" "http://www.w3.org/Graphics/SVG/1.1/DTD/svg11.dtd">
<svg version="1.1" id="Layer_1" xmlns="http://www.w3.org/2000/svg" xmlns:xlink="http://www.w3.org/1999/xlink" x="0px" y="0px"
	 width="1408px" height="2048px" viewBox="0 0 1408 2048" enable-background="new 0 0 1408 2048" xml:space="preserve">
<path fill="#25AAE1" d="M1408,1533c0,80-24.333,143.167-73,189.5s-113.333,69.5-194,69.5H267c-80.667,0-145.333-23.167-194-69.5
	S0,1613,0,1533c0-35.333,1.167-69.833,3.5-103.5s7-70,14-109S33.333,1245.333,44,1212s25-65.833,43-97.5s38.667-58.667,62-81
	s51.833-40.167,85.5-53.5s70.833-20,111.5-20c6,0,20,7.167,42,21.5s46.833,30.333,74.5,48s63.667,33.667,108,48
	S659.333,1099,704,1099s89.167-7.167,133.5-21.5s80.333-30.333,108-48s52.5-33.667,74.5-48s36-21.5,42-21.5
	c40.667,0,77.833,6.667,111.5,20s62.167,31.167,85.5,53.5s44,49.333,62,81s32.333,64.167,43,97.5s19.5,69.5,26.5,108.5
	s11.667,75.333,14,109S1408,1497.667,1408,1533z M1088,640c0,106-37.5,196.5-112.5,271.5S810,1024,704,1024s-196.5-37.5-271.5-112.5
	S320,746,320,640s37.5-196.5,112.5-271.5S598,256,704,256s196.5,37.5,271.5,112.5S1088,534,1088,640z"/>
</svg>
